<?xml version="1.0" encoding="UTF-8" standalone="no"?>
<!-- Uploaded to: SVG Repo, www.svgrepo.com, Generator: SVG Repo Mixer Tools -->

<svg
   width="800px"
   height="800px"
   viewBox="0 0 24 24"
   fill="none"
   version="1.1"
   id="svg2"
   sodipodi:docname="dark-mode-svgrepo-com.svg"
   inkscape:version="1.4.3 (0d15f75042, 2025-12-25)"
   xmlns:inkscape="http://www.inkscape.org/namespaces/inkscape"
   xmlns:sodipodi="http://sodipodi.sourceforge.net/DTD/sodipodi-0.dtd"
   xmlns="http://www.w3.org/2000/svg"
   xmlns:svg="http://www.w3.org/2000/svg">
  <defs
     id="defs2" />
  <sodipodi:namedview
     id="namedview2"
     pagecolor="#ffffff"
     bordercolor="#000000"
     borderopacity="0.25"
     inkscape:showpageshadow="2"
     inkscape:pageopacity="0.0"
     inkscape:pagecheckerboard="0"
     inkscape:deskcolor="#d1d1d1"
     inkscape:zoom="1.1025"
     inkscape:cx="400"
     inkscape:cy="400"
     inkscape:window-width="1920"
     inkscape:window-height="1128"
     inkscape:window-x="0"
     inkscape:window-y="0"
     inkscape:window-maximized="1"
     inkscape:current-layer="svg2" />
  <path
     d="M12 16C14.2091 16 16 14.2091 16 12C16 9.79086 14.2091 8 12 8V16Z"
     fill="#000000"
     id="path1" />
  <path
     fill-rule="evenodd"
     clip-rule="evenodd"
     d="M12 2C6.47715 2 2 6.47715 2 12C2 17.5228 6.47715 22 12 22C17.5228 22 22 17.5228 22 12C22 6.47715 17.5228 2 12 2ZM12 4V8C9.79086 8 8 9.79086 8 12C8 14.2091 9.79086 16 12 16V20C16.4183 20 20 16.4183 20 12C20 7.58172 16.4183 4 12 4Z"
     fill="#000000"
     id="path2" />
  <path
     style="fill:#ffffff;stroke-width:0.907029"
     d="m 378.68481,531.07521 c -48.51909,-8.30994 -87.83044,-41.44263 -104.19736,-87.82042 -5.31114,-15.0498 -6.80449,-24.54276 -6.80449,-43.25479 0,-13.86968 0.34549,-18.38286 1.99197,-26.02123 11.85583,-55.00162 54.76927,-96.20263 109.43634,-105.06935 4.50468,-0.73064 10.94542,-1.33007 14.31277,-1.33208 l 6.12245,-0.004 V 400 532.4263 l -7.02948,-0.093 c -3.86622,-0.0512 -10.09071,-0.6173 -13.8322,-1.25811 z"
     id="path3"
     transform="scale(0.03)" />
  <path
     style="fill:#ffffff;stroke-width:0.907029"
     d="m 378.68481,531.07521 c -54.8218,-9.38941 -97.19026,-50.22035 -109.00988,-105.05398 -2.86927,-13.31115 -2.86927,-38.73131 0,-52.04246 3.84118,-17.82 10.97638,-34.42725 21.36006,-49.71573 6.70719,-9.87539 21.91617,-25.28262 32.08144,-32.49963 19.55545,-13.88373 44.32284,-22.71923 67.133,-23.949 l 9.29706,-0.50124 V 399.86974 532.4263 l -7.02948,-0.093 c -3.86622,-0.0512 -10.09071,-0.6173 -13.8322,-1.25811 z"
     id="path4"
     transform="scale(0.03)" />
  <path
     style="fill:#ffffff;stroke-width:0.907029"
     d="m 400.45338,599.90803 1.3e-4,-66.30512 10.20409,-0.56413 c 39.3938,-2.17789 78.1401,-24.7704 100.60635,-58.66236 9.45354,-14.26136 16.10066,-30.30657 19.91524,-48.07257 2.95029,-13.74063 2.95029,-38.86707 0,-52.6077 -3.81458,-17.766 -10.4617,-33.81121 -19.91524,-48.07257 -22.53818,-34.00048 -61.6442,-56.72262 -101.05987,-58.71976 l -9.75057,-0.49405 v -66.48119 -66.4812 l 2.94785,0.36033 c 1.62132,0.19818 8.04989,0.57812 14.28571,0.84429 13.80336,0.58921 31.07685,3.19682 46.25194,6.9822 96.74574,24.13297 171.90617,100.0961 195.04384,197.12689 5.21367,21.86421 6.64414,34.86491 6.68824,60.7854 0.0463,27.19288 -1.61946,41.45042 -7.6298,65.30612 -12.68786,50.35954 -40.75675,97.25465 -78.90297,131.82437 -47.41355,42.96817 -107.67607,67.42647 -170.74843,69.30037 l -7.93664,0.2358 z"
     id="path5"
     transform="scale(0.03)" />
  <path
     style="fill:#ffffff;stroke-width:0.907029"
     d="m 400.45338,599.91199 1.3e-4,-66.30115 10.20409,-0.58873 c 33.79646,-1.94987 69.237,-19.84782 90.84427,-45.8776 32.55689,-39.22051 40.95247,-89.58803 22.76958,-136.60114 -18.03425,-46.6288 -64.39158,-80.72563 -113.61385,-83.56548 l -10.20409,-0.58873 v -66.47089 -66.47089 l 2.94785,0.36033 c 1.62132,0.19818 8.04989,0.57812 14.28571,0.84429 36.76765,1.56945 79.77751,14.40972 113.8322,33.98376 21.22179,12.19792 38.57037,25.50185 56.27237,43.15304 41.34944,41.23076 66.65595,91.63814 75.81955,151.02299 1.71934,11.14218 2.02946,16.82492 2.02946,37.18821 0,26.4261 -1.37727,39.09431 -6.6578,61.23891 -21.16428,88.75511 -86.18387,160.59978 -172.33716,190.42731 -24.44797,8.46425 -52.18412,13.53653 -78.2558,14.31113 l -7.93664,0.2358 z"
     id="path6"
     transform="scale(0.03)" />
  <path
     style="fill:#ffffff;stroke-width:0.907029"
     d="m 400.45338,599.90912 1.3e-4,-66.30402 9.75057,-0.56537 c 22.12641,-1.28297 44.6186,-8.97626 64.17234,-21.94968 29.61826,-19.65098 50.06532,-50.74826 57.26117,-87.08668 2.23882,-11.30582 2.23882,-36.70092 0,-48.00674 -9.76626,-49.3188 -43.51849,-87.74457 -90.82126,-103.39695 -9.10537,-3.01294 -25.89032,-5.93301 -34.10374,-5.93301 h -6.25908 v -66.60964 -66.60965 l 2.94785,0.36033 c 1.62132,0.19818 8.04989,0.57812 14.28571,0.84429 36.76765,1.56945 79.77751,14.40972 113.8322,33.98376 21.48573,12.34962 38.50227,25.39623 56.26599,43.13925 41.42375,41.37544 66.66142,91.64607 75.82593,151.03678 1.71934,11.14218 2.02946,16.82492 2.02946,37.18821 0,26.4261 -1.37727,39.09431 -6.6578,61.23891 -27.9147,117.06387 -130.87182,201.18147 -250.59296,204.73844 l -7.93664,0.2358 z"
     id="path7"
     transform="scale(0.03)" />
  <path
     style="fill:#ffffff;stroke-width:0.907029"
     d="m 400.45351,600.07964 v -66.47298 l 9.29706,-0.53088 c 52.9931,-3.02599 99.84467,-39.5608 117.14866,-91.35242 4.82421,-14.43908 6.32789,-24.35372 6.32789,-41.72336 0,-22.25049 -3.72375,-38.97199 -13.01302,-58.43489 -20.14925,-42.21682 -64.48077,-72.17865 -110.46353,-74.65774 l -9.29706,-0.50123 v -66.3738 -66.37381 l 7.93651,0.31411 c 82.63479,3.27052 155.57486,41.33104 204.79644,106.86387 26.55802,35.35893 43.47235,76.26166 50.43993,121.97528 2.66599,17.49141 2.90928,54.18833 0.47505,71.65533 -11.75315,84.33543 -61.00494,156.72652 -134.84974,198.20437 -33.48323,18.80718 -76.2135,31.28969 -112.01814,32.72311 -5.98639,0.23966 -12.21088,0.59826 -13.8322,0.79688 l -2.94785,0.36114 z"
     id="path8"
     transform="scale(0.03)" />
</svg>
